PathFileType	4	(X/Y/Z)	/Users/itak/Documents/Research/Walk-IL/dataset/trc/00310_00010.trc
DataRate	CameraRate	NumFrames	NumMarkers	Units	OrigDataRate	OrigDataStartFrame	OrigNumFrames
100.000000	100.000000	4	53	mm	100.000000	0	523
Frame#	Time	RPSI			LPSI			L3			STRN			T10			C7			CLAV			RBAK			LBAK			LSHO			LUPA			LAEL			LAOL			LWTS			LWPS			LFRA			LIFD			LHPS			LHTS			RSHO			RUPA			RAEL			RAOL			RWTS			RWPS			RFRA			RIFD			RHTS			RHPS			RBHD			LFHD			RFHD			LBHD			LHIP			RHIP			RASI			LASI			LKNE			LTHI			LANK			LTIP			LTOE			LMT1			LMT5			LHEE			RKNE			RTHI			RANK			RTIP			RTOE			RMT1			RMT5			RHEE			
		X1	Y1	Z1	X2	Y2	Z2	X3	Y3	Z3	X4	Y4	Z4	X5	Y5	Z5	X6	Y6	Z6	X7	Y7	Z7	X8	Y8	Z8	X9	Y9	Z9	X10	Y10	Z10	X11	Y11	Z11	X12	Y12	Z12	X13	Y13	Z13	X14	Y14	Z14	X15	Y15	Z15	X16	Y16	Z16	X17	Y17	Z17	X18	Y18	Z18	X19	Y19	Z19	X20	Y20	Z20	X21	Y21	Z21	X22	Y22	Z22	X23	Y23	Z23	X24	Y24	Z24	X25	Y25	Z25	X26	Y26	Z26	X27	Y27	Z27	X28	Y28	Z28	X29	Y29	Z29	X30	Y30	Z30	X31	Y31	Z31	X32	Y32	Z32	X33	Y33	Z33	X34	Y34	Z34	X35	Y35	Z35	X36	Y36	Z36	X37	Y37	Z37	X38	Y38	Z38	X39	Y39	Z39	X40	Y40	Z40	X41	Y41	Z41	X42	Y42	Z42	X43	Y43	Z43	X44	Y44	Z44	X45	Y45	Z45	X46	Y46	Z46	X47	Y47	Z47	X48	Y48	Z48	X49	Y49	Z49	X50	Y50	Z50	X51	Y51	Z51	X52	Y52	Z52	X53	Y53	Z53	

1	0	-1154.82958984375	1002.078247070312	-515.145263671875	-1161.697509765625	991.5840454101562	-689.2649536132812	-1137.947509765625	1071.638061523438	-608.4557495117188	-885.4303588867188	1247.909301757812	-635.5421752929688	-1149.552368164062	1183.111328125	-612.1057739257812	-1108.113159179688	1427.4765625	-638.2811889648438	-949.9700317382812	1348.452758789062	-638.405517578125	-1152.220336914062	1292.493774414062	-553.8328857421875	-1129.070678710938	1388.072021484375	-741.1693115234375	-1041.5205078125	1394.434936523438	-799.2252807617188	-1062.973022460938	1272.983154296875	-868.4322509765625	-1038.913452148438	1069.153686523438	-879.6245727539062	-1100.614501953125	1053.53271484375	-820.8444213867188	-953.5844116210938	849.0219116210938	-823.6128540039062	-985.662841796875	836.143798828125	-887.9329223632812	-1019.880615234375	965.3751831054688	-885.4034423828125	-949.0291748046875	663.3794555664062	-824.5087280273438	-979.1224975585938	747.7147216796875	-884.4457397460938	-928.637451171875	751.3259887695312	-841.1043090820312	-1029.397583007812	1410.220581054688	-483.1062622070312	-1028.855224609375	1351.736694335938	-415.4198608398438	-1016.739379882812	1085.171142578125	-359.4473266601562	-1063.340942382812	1075.334716796875	-442.433349609375	-909.8535766601562	870.3720092773438	-427.8392944335938	-939.412353515625	862.0302734375	-348.9371643066406	-986.7661743164062	1019.383605957031	-352.2518310546875	-888.746337890625	685.604736328125	-431.6920166015625	-854.8475952148438	769.9188842773438	-399.5372314453125	-907.385498046875	752.8336791992188	-357.5198974609375	-1097.128662109375	1585.164306640625	-583.3850708007812	-920.6949462890625	1641.078125	-688.74755859375	-930.72705078125	1642.77783203125	-596.0540771484375	-1078.955200195312	1572.511596679688	-728.0116577148438	-1095.446166992188	944.26171875	-787.1702270507812	-1045.989379882812	955.2528686523438	-417.211669921875	-931.5618286132812	962.6010131835938	-495.7388916015625	-955.6974487304688	955.279052734375	-745.7698364257812	-1003.984497070312	483.6092224121094	-774.9821166992188	-1020.57861328125	624.7335815429688	-792.0322875976562	-1123.92578125	47.41611862182617	-751.3089599609375	-1068.175659179688	260.0039672851562	-773.2481079101562	-913.360107421875	40.25483322143555	-714.68017578125	-978.1635131835938	32.55750274658203	-666.7984619140625	-1004.210021972656	42.17374420166016	-777.224609375	-1163.426147460938	43.82809066772461	-687.0601196289062	-997.9679565429688	481.7264099121094	-452.861083984375	-977.98974609375	745.9797973632812	-423.8121643066406	-1107.006225585938	45.96461486816406	-472.846923828125	-1000.579528808594	356.343505859375	-463.3615417480469	-911.66357421875	44.49461364746094	-527.0584716796875	-970.166259765625	40.76123428344727	-565.1639404296875	-1002.769653320312	38.23213958740234	-450.7928466796875	-1158.919921875	38.72580718994141	-521.1299438476562	
2	0.01	-1154.689697265625	1002.150268554688	-515.31787109375	-1161.573364257812	991.638427734375	-689.4548950195312	-1137.822021484375	1071.660766601562	-608.6609497070312	-885.3018188476562	1247.938842773438	-635.7783813476562	-1149.45263671875	1183.102783203125	-612.3408203125	-1107.98388671875	1427.484375	-638.519775390625	-949.86083984375	1348.459716796875	-638.6503295898438	-1152.150756835938	1292.468139648438	-554.1133422851562	-1128.929809570312	1388.080810546875	-741.4129638671875	-1041.402099609375	1394.451538085938	-799.4608764648438	-1062.907470703125	1273.045043945312	-868.7119750976562	-1039.036865234375	1069.192504882812	-879.9884643554688	-1100.744140625	1053.605834960938	-821.120361328125	-954.0540161132812	848.9150390625	-824.1820068359375	-986.2257690429688	836.0963134765625	-888.478271484375	-1020.212829589844	965.3873901367188	-885.835693359375	-949.7957153320312	663.2783203125	-825.209228515625	-979.8197021484375	747.66162109375	-885.0526733398438	-929.415283203125	751.091064453125	-841.7216796875	-1029.331176757812	1410.215454101562	-483.3285217285156	-1028.837036132812	1351.720092773438	-415.6658325195312	-1016.637512207031	1085.158935546875	-359.7232666015625	-1063.290771484375	1075.318359375	-442.7069396972656	-909.6849975585938	870.379150390625	-428.1471862792969	-939.2935791015625	862.0267333984375	-349.2166748046875	-986.6395263671875	1019.368225097656	-352.5281677246094	-888.6564331054688	685.5958251953125	-432.0061340332031	-856.9230346679688	767.7638549804688	-402.6768188476562	-907.26611328125	752.827392578125	-357.779296875	-1096.950073242188	1585.250854492188	-583.626708984375	-920.5189819335938	1641.031616210938	-689.0396118164062	-930.5348510742188	1642.762084960938	-596.3652954101562	-1078.814331054688	1572.515991210938	-728.219482421875	-1095.306762695312	944.2661743164062	-787.3316040039062	-1045.960327148438	955.3245239257812	-417.3525085449219	-931.419677734375	962.6312866210938	-495.8424987792969	-955.6123046875	955.26806640625	-745.8909912109375	-1004.01123046875	483.5966796875	-775.02587890625	-1020.544128417969	624.7153930664062	-792.111328125	-1123.930053710938	47.40692520141602	-751.3112182617188	-1068.190795898438	259.9966735839844	-773.2835693359375	-913.3626098632812	40.25828552246094	-714.6845703125	-978.1607666015625	32.56386566162109	-666.801513671875	-1004.210266113281	42.16735458374023	-777.2261962890625	-1163.436401367188	43.82577514648438	-687.0657958984375	-998.1198120117188	481.7458190917969	-452.8851013183594	-978.0516357421875	746.0572509765625	-423.8690185546875	-1106.99365234375	45.95541763305664	-472.8462219238281	-1000.729553222656	356.3704833984375	-463.396728515625	-911.6696166992188	44.5006103515625	-527.0604858398438	-970.1732788085938	40.76239013671875	-565.1671142578125	-1002.773498535156	38.23787689208984	-450.7963562011719	-1158.919067382812	38.71639251708984	-521.1307983398438	
3	0.02	-1154.510986328125	1002.241882324219	-515.5518188476562	-1161.407470703125	991.7095947265625	-689.7098388671875	-1137.658935546875	1071.689575195312	-608.9352416992188	-885.140380859375	1247.972534179688	-636.0865478515625	-1149.317504882812	1183.092529296875	-612.6522827148438	-1107.814697265625	1427.494140625	-638.837158203125	-949.7203369140625	1348.46826171875	-638.9696655273438	-1152.0556640625	1292.436279296875	-554.482666015625	-1128.748046875	1388.091674804688	-741.7380981445312	-1041.24072265625	1394.4716796875	-799.7737426757812	-1062.82666015625	1273.123657226562	-869.0809936523438	-1039.213500976562	1069.241455078125	-880.4683227539062	-1100.9228515625	1053.704711914062	-821.4898681640625	-954.6692504882812	848.77978515625	-824.91845703125	-986.9505615234375	836.0359497070312	-889.1846923828125	-1020.658752441406	965.4049072265625	-886.4027709960938	-950.8026733398438	663.1527099609375	-826.1067504882812	-980.72412109375	747.5936889648438	-885.8367309570312	-930.3990478515625	750.8018188476562	-842.5221557617188	-1029.243530273438	1410.208618164062	-483.6258544921875	-1028.807983398438	1351.697021484375	-415.9916687011719	-1016.499145507812	1085.146362304688	-360.0844116210938	-1063.218505859375	1075.29736328125	-443.0657348632812	-909.4672241210938	870.3778076171875	-428.545166015625	-939.1384887695312	862.0174560546875	-349.5810546875	-986.4713134765625	1019.348815917969	-352.8908996582031	-888.541015625	685.5792846679688	-432.4067077636719	-859.2575073242188	765.3460693359375	-406.2495422363281	-907.12060546875	752.8198852539062	-358.1231079101562	-1096.70947265625	1585.356689453125	-583.9395141601562	-920.2842407226562	1640.975830078125	-689.42724609375	-930.2732543945312	1642.740966796875	-596.7728271484375	-1078.625	1572.522094726562	-728.4977416992188	-1095.124145507812	944.2766723632812	-787.5523071289062	-1045.917358398438	955.4097900390625	-417.54833984375	-931.2453002929688	962.6663818359375	-495.9915466308594	-955.4945678710938	955.25634765625	-746.0572509765625	-1004.050109863281	483.5811157226562	-775.0827026367188	-1020.504150390625	624.695556640625	-792.2196655273438	-1123.936645507812	47.39517593383789	-751.315185546875	-1068.211791992188	259.9866943359375	-773.3296508789062	-913.36572265625	40.26253890991211	-714.6896362304688	-978.1577758789062	32.57070922851562	-666.8046264648438	-1004.214294433594	42.16182708740234	-777.2283325195312	-1163.45068359375	43.82233047485352	-687.07421875	-998.3035888671875	481.772216796875	-452.9275512695312	-978.119384765625	746.1474609375	-423.9603576660156	-1106.981201171875	45.94718170166016	-472.847412109375	-1000.906066894531	356.4042358398438	-463.4456176757812	-911.6757202148438	44.50666427612305	-527.0655517578125	-970.1814575195312	40.76289367675781	-565.1719970703125	-1002.777709960938	38.24612426757812	-450.8032531738281	-1158.917724609375	38.70562744140625	-521.1334228515625	
4	0.03	-1154.300659179688	1002.348815917969	-515.84521484375	-1161.203002929688	991.7955932617188	-690.0263061523438	-1137.463745117188	1071.72314453125	-609.2743530273438	-884.953369140625	1248.00732421875	-636.45751953125	-1149.149291992188	1183.08154296875	-613.033935546875	-1107.6103515625	1427.505493164062	-639.2274780273438	-949.553466796875	1348.477661132812	-639.354736328125	-1151.935424804688	1292.400146484375	-554.931884765625	-1128.531372070312	1388.10400390625	-742.138671875	-1041.0380859375	1394.493896484375	-800.1576538085938	-1062.735961914062	1273.21533203125	-869.530517578125	-1039.4462890625	1069.298217773438	-881.052490234375	-1101.149536132812	1053.828491210938	-821.9466552734375	-955.4131469726562	848.6221313476562	-825.7969970703125	-987.8104248046875	835.9653930664062	-890.0283813476562	-1021.210815429688	965.4277954101562	-887.0892333984375	-952.0216064453125	663.0095825195312	-827.165283203125	-981.8059692382812	747.5137329101562	-886.77001953125	-931.5438842773438	750.476806640625	-843.4786987304688	-1029.135864257812	1410.2001953125	-483.9934387207031	-1028.765747070312	1351.667358398438	-416.3906555175781	-1016.32470703125	1085.135375976562	-360.5205383300781	-1063.123046875	1075.273193359375	-443.4999694824219	-909.2101440429688	870.3619995117188	-429.019775390625	-938.952392578125	862.0001220703125	-350.0194091796875	-986.26513671875	1019.326293945312	-353.3304138183594	-888.4072265625	685.5528564453125	-432.8778686523438	-861.6182861328125	762.90869140625	-409.9203796386719	-906.9588623046875	752.8115234375	-358.5435180664062	-1096.409423828125	1585.474975585938	-584.3140869140625	-919.9951782226562	1640.914306640625	-689.9025268554688	-929.9442749023438	1642.715087890625	-597.265625	-1078.39013671875	1572.529907226562	-728.8424682617188	-1094.903198242188	944.2955322265625	-787.8316650390625	-1045.858642578125	955.501953125	-417.799560546875	-931.049560546875	962.703125	-496.1897277832031	-955.3438110351562	955.2454223632812	-746.2687377929688	-1004.102661132812	483.5635070800781	-775.1510009765625	-1020.460571289062	624.6762084960938	-792.3562622070312	-1123.94580078125	47.38125610351562	-751.3212890625	-1068.2392578125	259.97412109375	-773.3847045898438	-913.3692016601562	40.26737594604492	-714.6948852539062	-978.1550903320312	32.57707977294922	-666.8071899414062	-1004.2236328125	42.15850067138672	-777.2308349609375	-1163.469482421875	43.81758117675781	-687.085693359375	-998.5051879882812	481.8052368164062	-452.9931945800781	-978.1837158203125	746.2418823242188	-424.0933227539062	-1106.97119140625	45.94221496582031	-472.8515625	-1001.092956542969	356.4426574707031	-463.5089416503906	-911.6804809570312	44.51167297363281	-527.0748291015625	-970.1900024414062	40.76213836669922	-565.1787109375	-1002.781921386719	38.25707626342773	-450.8145751953125	-1158.915771484375	38.69451141357422	-521.1384887695312	
